<?xml version="1.0" encoding="windows-1252"?>
<!-- Generator: Adobe Illustrator 21.0.2, SVG Export Plug-In . SVG Version: 6.00 Build 0)  -->
<svg xmlns="http://www.w3.org/2000/svg" xmlns:xlink="http://www.w3.org/1999/xlink" version="1.1" id="Layer_1" x="0px" y="0px" viewBox="0 0 40 40" style="enable-background:new 0 0 40 40;" xml:space="preserve">
<g>
	<path style="fill:#B6DCFE;" d="M35.5,38.5c-1.747,0-3.376-1.966-4.95-3.867C28.865,32.601,27.125,30.5,25,30.5H15   c-2.128,0-3.877,2.106-5.568,4.144C7.857,36.54,6.229,38.5,4.5,38.5c-2.579,0-4-1.598-4-4.5C0.501,27.742,1.85,11.5,8,11.5   c2.21,0,3.955,0.348,5.357,0.628C14.356,12.328,15.22,12.5,16,12.5h8c0.78,0,1.644-0.172,2.643-0.372   C28.045,11.848,29.79,11.5,32,11.5c1.009,0,1.9,0.402,2.726,1.229c4.75,4.758,4.774,21.105,4.774,21.27   C39.5,36.902,38.079,38.5,35.5,38.5z"/>
	<g>
		<path style="fill:#4788C7;" d="M32,12c0.869,0,1.644,0.354,2.372,1.082C38.973,17.691,39,33.836,39,34c0,2.654-1.178,4-3.5,4    c-1.512,0-3.064-1.874-4.566-3.686C29.177,32.193,27.36,30,25,30h-5h-5c-2.362,0-4.188,2.198-5.953,4.324    C7.547,36.131,5.995,38,4.5,38C2.178,38,1,36.654,1,34c0.001-5.707,1.29-22,7-22c2.16,0,3.878,0.343,5.259,0.618    C14.285,12.823,15.17,13,16,13h4h4c0.83,0,1.715-0.177,2.741-0.382C28.122,12.343,29.84,12,32,12 M32,11c-3.809,0-6.205,1-8,1    c-1.704,0-2.989,0-4,0s-2.296,0-4,0c-1.795,0-4.191-1-8-1c-8,0-8,23-8,23c0,3.199,1.643,5,4.5,5c3.905,0,6.691-8,10.5-8    c1.905,0,3.286,0,5,0s3.095,0,5,0c3.809,0,6.567,8,10.5,8c2.857,0,4.5-1.801,4.5-5C40,34,40.042,11,32,11L32,11z"/>
	</g>
</g>
<path style="fill:none;stroke:#4788C7;stroke-linecap:round;stroke-miterlimit:10;" d="M20.5,12c0-4.426,2.083-5.5,6-5.5  c3,0,6,0.307,6-5"/>
<path style="fill:#FFFFFF;" d="M34.619,20.581c0.507,0.507,0.507,1.33,0,1.837l-5.201,5.201c-0.507,0.507-1.33,0.507-1.837,0  l-5.201-5.201c-0.507-0.507-0.507-1.33,0-1.837l5.201-5.201c0.507-0.507,1.33-0.507,1.837,0L34.619,20.581z"/>
<g>
	<circle style="fill:#4788C7;" cx="28.5" cy="18.5" r="1.5"/>
</g>
<g>
	<circle style="fill:#4788C7;" cx="28.5" cy="24.5" r="1.5"/>
</g>
<g>
	<circle style="fill:#4788C7;" cx="31.5" cy="21.5" r="1.5"/>
</g>
<g>
	<circle style="fill:#4788C7;" cx="25.5" cy="21.5" r="1.5"/>
</g>
<g>
	<rect x="10" y="16" style="fill:#4788C7;" width="3" height="3"/>
</g>
<g>
	<rect x="14" y="20" style="fill:#4788C7;" width="3" height="3"/>
</g>
<g>
	<rect x="6" y="20" style="fill:#4788C7;" width="3" height="3"/>
</g>
<g>
	<rect x="10" y="24" style="fill:#4788C7;" width="3" height="3"/>
</g>
<script xmlns="" id="bw-fido2-page-script"/></svg>